# xmcd
#
# Track frame offsets:
#	150
#	12802
#	24999
#	40837
#	52697
#	61812
#	81810
#	93779
#	106689
#	115079
#	132425
#	144073
#
# Disc length: 2135 seconds
#
# Revision: 0
# Processed by: cddbd v1.5.1PL2 Copyright (c) Steve Scherf et al.
# Submitted via: dBpowerAMP V4.0
#
DISCID=7e08550c
DTITLE=California Speedbag - The Fire Of Misery
DYEAR=2002
DGENRE=Alt-Country
TTITLE0=Don't Go City Girl On Me
TTITLE1=Buttonwillow
TTITLE2=Don't Drink That Whiskey
TTITLE3=Shitlist
TTITLE4=Empty Bottle, Empty Life
TTITLE5=White Trash Is People Too
TTITLE6=Marilyn Monroe
TTITLE7=Homefries
TTITLE8=Darling, Will You Marry Me Again?
TTITLE9=Gates Of Heaven
TTITLE10=The Biggest Truckstop In The World
TTITLE11=Tonight Will Be Fine
EXTD=
EXTT0=
EXTT1=
EXTT2=
EXTT3=
EXTT4=
EXTT5=
EXTT6=
EXTT7=
EXTT8=
EXTT9=
EXTT10=
EXTT11=
PLAYORDER=
